<?xml version="1.0" encoding="utf-8"?>
<!-- Generator: Adobe Illustrator 28.3.0, SVG Export Plug-In . SVG Version: 6.00 Build 0)  -->
<svg version="1.1" id="Layer_1" xmlns="http://www.w3.org/2000/svg" xmlns:xlink="http://www.w3.org/1999/xlink" x="0px" y="0px"
	 viewBox="0 0 72 72" style="enable-background:new 0 0 72 72;" xml:space="preserve">
<style type="text/css">
	.st0{fill:#002E5D;}
</style>
<g id="Artwork_1_00000106845226145835855460000017262513727834223039_">
	<path class="st0" d="M36.2,18.5C20.1,18.5,7,26.6,7,36.6c0,10,13.1,18.1,29.2,18.1s29.2-8.1,29.2-18.1
		C65.5,26.6,52.4,18.5,36.2,18.5 M53.4,32c-0.8-0.8-3-2.1-3-2.1l-9.9,11.6l0,5.2l3.8-0.4c0,0,0.5,1.9,0.9,3.9
		c-9.9,2-17.4-0.1-17.4-0.1l0.7-3.8l3.5,0.4v-5.4c0,0-7.7-9-10.1-11.9c-1.5,0.6-3.1,1.9-3.1,1.9l-2.4-3c6.2-5.4,17-5.9,17-5.9
		s0.2,1.9,0.3,4.1c-1.8,0.2-3.7,0.5-3.7,0.5l8.4,9.7l7.3-8.7l-3.2-0.7c0,0,0.4-2.4,0.6-4.2c8,0.8,13,5.7,13,5.7S54.4,30.7,53.4,32"
		/>
</g>
</svg>
