<?xml version="1.0" encoding="utf-8"?>
<!-- Generator: Adobe Illustrator 28.3.0, SVG Export Plug-In . SVG Version: 6.00 Build 0)  -->
<svg version="1.1" id="Layer_1" xmlns="http://www.w3.org/2000/svg" xmlns:xlink="http://www.w3.org/1999/xlink" x="0px" y="0px"
	 viewBox="0 0 72 72"  xml:space="preserve">
<style type="text/css">
	.st0{fill:#05539e;}
</style>
<g>
	<path class="st0" d="M50.8,35v-4.2h-0.8v-4.2h-0.9l0.1,0l-1.9-6.1l-1.9,6.1l0.1,0h-1.1v4.2h-0.8V35h-1.7v-4.6h-2.2v-3.8h-0.9v-3.8
		h-1l-1.4-4.6c0.6-0.3,1-0.8,1-1.5c0-0.5-0.2-0.9-0.5-1.2v-2.6l3-0.6l-0.4-2L37,10.8c0,0,0,0,0,0c0-0.9-0.7-1.6-1.6-1.6
		s-1.6,0.7-1.6,1.6c0,0.6,0.4,1.2,1,1.4c-0.1,0.3-0.2,0.7-0.2,1.2v1.8c-0.4,0.3-0.7,0.8-0.7,1.4c0,0.7,0.4,1.3,1,1.5l-1.5,4.6h-0.9
		v3.8h-1v3.8h-1.7V35h-1.9v-4.2h-0.8v-4.2h-1l0.1,0l-1.9-6.1l-1.9,6.1l0.1,0h-1v4.2h-0.8V35h-1.3v26.1h32.8V35H50.8z M46.4,28.6h1.7
		v2.2h-1.7V28.6z M45.7,32.8h3.2V35h-3.2V32.8z M39.9,59.1h-2.5v-4.9c0-0.9-0.7-1.6-1.6-1.6s-1.6,0.7-1.6,1.6v4.9h-2.4V32.4h8.1
		V59.1z M35.6,22.6l0.1,0.2h-0.1L35.6,22.6z M34.5,24.8h2.2v1.8h-2.2V24.8z M33.5,28.6h4.2v1.8h-4.2V28.6z M23.5,28.6h1.7v2.2h-1.7
		V28.6z M22.8,32.8h3.2V35h-3.2V32.8z M29.5,59.1H27v-3.3c0-0.9-0.7-1.6-1.6-1.6s-1.6,0.7-1.6,1.6v3.3h-2.4V37h8.1V59.1z M50.2,59.1
		h-2.4v-3.3c0-0.9-0.7-1.6-1.6-1.6s-1.6,0.7-1.6,1.6v3.3h-2.5V37h8.1V59.1z"/>
	<path class="st0" d="M27,40.5c0-0.9-0.7-1.6-1.6-1.6s-1.6,0.7-1.6,1.6v3.6H27V40.5z"/>
	<path class="st0" d="M25.5,46.7c-0.9,0-1.6,0.7-1.6,1.6v3.5H27v-3.5C27,47.4,26.3,46.7,25.5,46.7z"/>
	<path class="st0" d="M47.7,40.5c0-0.9-0.7-1.6-1.6-1.6s-1.6,0.7-1.6,1.6v3.6h3.1V40.5z"/>
	<path class="st0" d="M46.3,46.7c-0.9,0-1.6,0.7-1.6,1.6v3.5h3.1v-3.5C47.8,47.4,47.1,46.7,46.3,46.7z"/>
	<path class="st0" d="M37.4,36.4c0-0.9-0.7-1.6-1.6-1.6s-1.6,0.7-1.6,1.6v5h3.1V36.4z"/>
	<path class="st0" d="M37.4,45.4c0-0.9-0.7-1.6-1.6-1.6s-1.6,0.7-1.6,1.6v5h3.1V45.4z"/>
</g>
</svg>
